<svg xmlns="http://www.w3.org/2000/svg" viewBox="0 0 435.97 173.13">
  <path fill="#5f6368" d="M206.2,84.58v50.75H190.1V10h42.7a38.61,38.61,0,0,1,27.65,10.85A34.88,34.88,0,0,1,272,47.3a34.72,34.72,0,0,1-11.55,26.6q-11.2,10.68-27.65,10.67H206.2Zm0-59.15V69.16h27a21.28,21.28,0,0,0,15.93-6.48,21.36,21.36,0,0,0,0-30.63,21,21,0,0,0-15.93-6.62Z"/>
  <path fill="#5f6368" d="M309.1,46.78q17.85,0,28.18,9.54T347.6,82.48v52.85H332.18v-11.9h-.7q-10,14.63-26.6,14.63-14.18,0-23.72-8.4a26.59,26.59,0,0,1-9.54-21q0-13.31,10.06-21.17t26.86-7.88q14.34,0,23.62,5.25V81.43A18.33,18.33,0,0,0,325.54,67,22.8,22.8,0,0,0,310,61.13q-13.49,0-21.35,11.38l-14.18-8.93Q286.17,46.78,309.1,46.78Zm-20.83,62.3a12.86,12.86,0,0,0,5.34,10.5,19.64,19.64,0,0,0,12.51,4.2,25.67,25.67,0,0,0,18.11-7.52q8-7.53,8-17.67-7.53-6-21.17-6-9.89,0-16.36,4.73C290.48,100.52,288.27,104.47,288.27,109.08Z"/>
  <path fill="#5f6368" d="M436,49.51,382.24,173.13H365.62l19.95-43.23-35.35-80.39h17.5l25.55,61.6h.35l24.85-61.6Z"/>
  <path fill="#4285F4" d="M141.14,73.64A85.79,85.79,0,0,0,139.9,59H72V86.73h38.89a33.33,33.33,0,0,1-14.38,21.88v18h23.21C133.31,114.08,141.14,95.55,141.14,73.64Z"/>
  <path fill="#34A853" d="M72,135.33c19.43,0,35.79-6.38,47.72-17.33l-23.21-18c-6.46,4.38-14.78,6.9-24.51,6.9-18.78,0-34.72-12.66-40.42-29.72H7.67v18.55A72,72,0,0,0,72,135.33Z"/>
  <path fill="#FBBC04" d="M31.58,77.19a43.1,43.1,0,0,1,0-27.56V31.08H7.67a72,72,0,0,0,0,64.66Z"/>
  <path fill="#EA4335" d="M72,28.9a39.09,39.09,0,0,1,27.62,10.8l20.55-20.55A69.18,69.18,0,0,0,72,0,72,72,0,0,0,7.67,31.08L31.58,49.63C37.28,32.57,53.22,28.9,72,28.9Z"/>
</svg>
