<svg xmlns="http://www.w3.org/2000/svg" viewBox="0 0 76 76">
  <rect width="76" height="76" rx="12" fill="#5f259f"/>
  <path fill="#fff" d="M55.2,24.1L43.5,18.3c-1.4-0.7-3-0.7-4.4,0L27.4,24.1c-1.4,0.7-2.3,2.1-2.3,3.7v16.4c0,1.6,0.9,3,2.3,3.7l11.7,5.8c0.7,0.3,1.4,0.5,2.2,0.5s1.5-0.2,2.2-0.5l11.7-5.8c1.4-0.7,2.3-2.1,2.3-3.7V27.8C57.5,26.2,56.6,24.8,55.2,24.1z M41.3,47.5c-3.8,0-6.9-3.1-6.9-6.9s3.1-6.9,6.9-6.9s6.9,3.1,6.9,6.9S45.1,47.5,41.3,47.5z"/>
  <circle fill="#5f259f" cx="41.3" cy="40.6" r="3.5"/>
</svg>
